# xmcd CD database file
# Copyright (C) 1995-1998 Ti Kan
#
# Track frame offsets:
#	150
#	14558
#	27117
#	42738
#	61332
#	80850
#	104971
#	114152
#	140625
#	154781
#	167345
#	188514
#	212779
#	222012
#	243510
#
# Disc length: 3487 seconds
#
# Revision: 1
# Processed by: cddbd v1.4PL0 Copyright (c) Steve Scherf et al.
# Submitted via: CDex 1.30Release
#
DISCID=d50d9d0f
DTITLE=Tom Waits - The Elf
DYEAR=1977
DGENRE=Blues
TTITLE0=Tango Till They're Sore
TTITLE1=29 Dollars
TTITLE2=I Wish I Was In New Orleans
TTITLE3=Downtown Train
TTITLE4=Jersey Girl
TTITLE5=Innocent When You Dream
TTITLE6=Walking Spanish
TTITLE7=Tom Traubert's Blues
TTITLE8=Broken Bicycles
TTITLE9=On The Nickel
TTITLE10=(Looking For) The Heart Of Saturday Night
TTITLE11=Burma Shave
TTITLE12=Frank's Wild Years
TTITLE13=On The Nickel
TTITLE14=Eggs and Sausage (In A Cadillac With Susan Michelson)
EXTD=YEAR: 1977, 1984, 1986 ID3G:   0
EXTT0=
EXTT1=
EXTT2=
EXTT3=
EXTT4=
EXTT5=
EXTT6=
EXTT7=
EXTT8=
EXTT9=
EXTT10=
EXTT11=
EXTT12=
EXTT13=
EXTT14=
PLAYORDER=
